<svg id="svg" version="1.1" xmlns="http://www.w3.org/2000/svg" xmlns:xlink="http://www.w3.org/1999/xlink" width="400" height="286.76171079429736" viewBox="0, 0, 400,286.76171079429736"><g id="svgg"><path id="path0" d="M139.374 107.567 L 139.443 133.658 140.678 134.378 C 141.358 134.774,143.129 135.820,144.616 136.702 C 146.102 137.583,149.072 139.335,151.215 140.595 C 154.698 142.643,155.057 142.922,154.609 143.228 C 154.333 143.416,136.205 154.024,114.325 166.799 C 65.897 195.076,64.213 196.063,62.325 197.271 C 61.496 197.801,60.705 198.235,60.567 198.235 C 60.430 198.235,60.243 198.356,60.151 198.503 C 60.056 198.658,60.166 198.703,60.410 198.609 C 60.793 198.462,60.827 200.953,60.763 224.274 C 60.724 238.479,60.784 250.102,60.896 250.102 C 61.008 250.102,61.100 249.994,61.100 249.862 C 61.100 249.730,61.351 249.556,61.659 249.476 C 61.966 249.395,65.113 247.647,68.651 245.590 C 93.187 231.330,173.538 184.471,175.367 183.356 L 177.617 181.984 177.602 168.916 L 177.587 155.848 178.203 156.175 C 181.662 158.009,199.937 168.592,200.127 168.871 C 200.206 168.988,224.100 182.901,253.225 199.788 C 327.021 242.579,327.823 243.041,328.225 243.041 C 328.520 243.041,328.572 238.458,328.515 217.068 L 328.445 191.095 316.768 184.309 C 267.345 155.587,246.048 143.257,245.341 142.958 C 244.889 142.766,240.856 140.481,236.380 137.881 C 231.904 135.281,222.193 129.641,214.800 125.347 C 207.407 121.053,200.869 117.203,200.272 116.790 C 199.674 116.378,189.104 110.202,176.782 103.067 C 146.442 85.498,143.996 84.086,142.430 83.245 C 141.684 82.844,140.675 82.282,140.189 81.996 L 139.305 81.476 139.374 107.567 " stroke="none" fill="#e2be55" fill-rule="evenodd"></path><path id="path1" d="M326.680 42.808 C 242.165 92.143,232.047 98.063,229.340 99.760 C 228.601 100.223,227.623 100.802,227.168 101.046 L 226.341 101.490 226.341 116.646 L 226.341 131.802 235.535 137.184 C 240.592 140.144,244.896 142.566,245.101 142.566 C 245.435 142.566,259.737 134.267,333.153 91.468 C 345.151 84.474,355.059 78.751,355.170 78.751 C 355.281 78.751,355.520 107.132,355.700 141.819 C 355.880 176.507,356.091 205.624,356.169 206.524 L 356.310 208.159 367.904 214.932 C 374.280 218.656,381.546 222.917,384.049 224.399 L 388.600 227.095 388.592 252.645 L 388.584 278.195 389.608 278.781 C 390.171 279.102,392.403 280.416,394.569 281.699 L 398.506 284.033 398.575 213.141 C 398.612 174.151,398.612 110.442,398.575 71.565 L 398.506 0.880 326.680 42.808 M2.444 143.087 L 2.444 284.060 3.266 283.635 C 3.719 283.401,5.155 282.566,6.457 281.780 C 7.760 280.994,9.131 280.174,9.504 279.958 C 9.878 279.742,10.273 279.443,10.383 279.294 C 10.493 279.145,10.585 267.475,10.589 253.360 L 10.595 227.699 11.611 227.132 C 12.170 226.820,17.882 223.455,24.304 219.654 C 30.726 215.853,38.712 211.159,42.051 209.223 L 48.121 205.703 47.954 143.149 L 47.788 80.595 48.673 81.117 C 53.059 83.704,61.665 88.527,61.896 88.527 C 62.100 88.527,62.186 80.820,62.186 62.620 L 62.186 36.713 58.316 34.411 C 49.972 29.448,3.560 2.543,2.915 2.295 C 2.468 2.124,2.444 9.402,2.444 143.087 " stroke="none" fill="#3a2c79" fill-rule="evenodd"></path><path id="path2" d="M62.121 62.410 C 62.164 78.273,62.093 88.417,61.938 88.512 C 61.699 88.660,64.046 90.064,78.140 98.206 L 83.910 101.540 83.910 75.369 L 83.910 49.198 82.756 48.538 C 80.156 47.051,63.096 37.127,62.593 36.808 C 62.051 36.465,62.050 36.523,62.121 62.410 M213.714 108.733 C 200.354 116.564,200.287 116.615,201.952 117.664 C 202.752 118.168,218.461 127.372,225.255 131.317 L 226.341 131.948 226.341 116.619 C 226.341 108.188,226.341 101.299,226.341 101.310 C 226.341 101.322,220.659 104.662,213.714 108.733 M350.849 230.220 L 350.984 256.445 352.342 257.252 C 353.089 257.695,360.849 262.209,369.586 267.282 C 378.323 272.355,386.172 276.915,387.028 277.413 L 388.584 278.320 388.592 252.708 L 388.600 227.095 384.049 224.399 C 381.546 222.917,374.274 218.653,367.889 214.925 C 359.908 210.264,356.281 208.004,356.281 207.691 C 356.280 207.268,355.377 206.645,351.935 204.689 L 350.713 203.994 350.849 230.220 M37.610 211.783 C 36.351 212.562,12.759 226.491,11.613 227.131 L 10.599 227.699 10.527 253.564 C 10.487 267.790,10.547 279.430,10.659 279.430 C 10.771 279.430,10.862 279.308,10.862 279.158 C 10.862 279.009,10.961 278.917,11.081 278.955 C 11.410 279.056,37.746 263.683,37.746 263.389 C 37.746 263.250,37.929 263.136,38.153 263.136 C 38.513 263.136,38.561 260.074,38.561 237.203 C 38.561 222.940,38.530 211.272,38.493 211.274 C 38.456 211.277,38.058 211.505,37.610 211.783 " stroke="none" fill="#8d736f" fill-rule="evenodd"></path><path id="path3" d="M83.977 75.385 L 84.046 101.632 90.563 105.436 C 94.148 107.528,97.234 109.243,97.420 109.248 C 97.607 109.252,97.760 109.378,97.760 109.527 C 97.760 109.676,97.831 109.727,97.918 109.640 C 98.005 109.553,98.315 109.720,98.607 110.012 C 98.899 110.304,99.255 110.470,99.399 110.381 C 99.543 110.292,99.661 110.344,99.661 110.497 C 99.661 110.650,99.874 110.890,100.136 111.030 C 100.587 111.271,100.607 109.958,100.540 84.955 C 100.494 67.665,100.378 58.684,100.201 58.793 C 100.053 58.885,99.932 58.833,99.932 58.679 C 99.932 58.524,99.566 58.209,99.117 57.977 C 98.669 57.745,98.303 57.643,98.303 57.750 C 98.303 57.857,98.123 57.708,97.904 57.418 C 97.685 57.128,97.500 57.013,97.493 57.162 C 97.485 57.321,97.397 57.309,97.280 57.134 C 97.171 56.969,94.392 55.276,91.107 53.372 C 87.821 51.468,84.857 49.736,84.520 49.524 L 83.908 49.137 83.977 75.385 M200.439 116.472 C 200.136 116.663,200.171 116.768,200.616 117.006 C 201.097 117.264,201.150 117.233,201.028 116.764 C 200.950 116.468,200.871 116.227,200.851 116.230 C 200.831 116.232,200.645 116.341,200.439 116.472 M195.519 168.892 C 195.519 171.138,195.447 171.623,195.112 171.623 C 194.888 171.623,194.705 171.749,194.705 171.904 C 194.705 172.094,194.880 172.091,195.248 171.894 C 195.547 171.734,195.791 171.478,195.791 171.325 C 195.791 171.172,195.913 171.123,196.062 171.215 C 196.212 171.308,196.334 171.254,196.334 171.095 C 196.334 170.937,196.426 170.836,196.538 170.870 C 196.789 170.947,200.136 169.113,200.136 168.898 C 200.136 168.813,199.616 168.482,198.982 168.163 C 198.347 167.843,197.308 167.262,196.673 166.871 L 195.519 166.161 195.519 168.892 M341.007 224.354 C 341.075 249.152,341.055 250.425,340.600 250.252 C 340.313 250.142,340.231 250.166,340.394 250.310 C 340.799 250.668,349.723 255.804,349.940 255.804 C 350.043 255.804,350.320 255.979,350.556 256.192 C 350.946 256.546,350.978 254.245,350.914 230.480 C 350.848 206.060,350.813 204.352,350.370 203.939 C 350.109 203.696,348.247 202.544,346.231 201.378 C 344.215 200.213,342.200 199.037,341.752 198.767 L 340.937 198.274 341.007 224.354 M42.302 209.176 L 38.576 211.405 38.569 237.302 L 38.561 263.199 39.222 262.765 C 39.586 262.527,40.350 262.071,40.920 261.751 C 41.489 261.432,42.902 260.624,44.060 259.957 L 46.164 258.744 46.164 232.834 C 46.164 218.584,46.134 206.930,46.096 206.936 C 46.059 206.942,44.352 207.950,42.302 209.176 " stroke="none" fill="#aa8c66" fill-rule="evenodd"></path><path id="path4" d="M100.479 84.907 L 100.475 111.022 105.160 113.795 C 113.245 118.583,113.916 118.975,126.188 126.098 C 132.788 129.928,138.278 133.062,138.387 133.062 C 138.496 133.062,138.779 133.236,139.015 133.450 C 139.405 133.803,139.437 131.487,139.373 107.572 L 139.302 81.306 137.787 80.436 C 136.953 79.957,136.169 79.566,136.044 79.566 C 135.919 79.566,135.655 79.409,135.457 79.217 C 134.908 78.684,103.214 60.371,101.650 59.683 C 101.228 59.498,100.793 59.221,100.683 59.069 C 100.573 58.916,100.482 70.543,100.479 84.907 M177.597 168.746 C 177.597 175.836,177.690 181.695,177.803 181.766 C 178.024 181.902,193.517 172.897,194.436 172.098 C 194.736 171.836,195.103 171.623,195.251 171.623 C 195.410 171.623,195.519 170.493,195.518 168.839 L 195.516 166.056 194.635 165.547 C 191.312 163.627,178.704 156.433,178.208 156.173 L 177.597 155.853 177.597 168.746 M328.581 217.069 C 328.581 237.557,328.510 243.025,328.242 243.133 C 328.030 243.219,328.073 243.278,328.355 243.292 C 328.604 243.303,328.848 243.416,328.898 243.542 C 328.948 243.669,329.319 243.943,329.723 244.153 C 330.127 244.363,331.716 245.282,333.253 246.195 C 336.420 248.077,340.619 250.373,340.891 250.373 C 340.991 250.373,341.073 238.705,341.073 224.443 L 341.073 198.513 340.054 197.871 C 339.291 197.390,330.121 192.008,328.785 191.257 C 328.673 191.194,328.581 202.810,328.581 217.069 M53.986 201.996 C 50.804 203.852,48.103 205.538,47.984 205.741 C 47.864 205.944,47.406 206.296,46.965 206.524 L 46.164 206.939 46.164 232.751 L 46.164 258.564 48.410 257.340 C 52.208 255.270,59.591 250.889,59.770 250.600 C 59.862 250.450,60.017 250.337,60.112 250.350 C 60.207 250.363,60.405 250.373,60.551 250.373 C 60.723 250.373,60.820 241.202,60.826 224.457 C 60.833 198.897,60.826 198.540,60.302 198.580 C 60.010 198.602,57.168 200.139,53.986 201.996 " stroke="none" fill="#b49464" fill-rule="evenodd"></path></g></svg>